<svg xmlns="http://www.w3.org/2000/svg" version="1.0" viewBox="0 0 300 300"><path d="M108.4 59.2c-1.3 1.6-2.4 3.5-2.4 4.2 0 2.1 4.7 6.6 6.9 6.6 1.1 0 2.4.7 2.9 1.5.5 1 1.5 1.3 2.5.9 1.9-.7 2.2-2 .7-2.9-.7-.4-.6-1.4.2-2.8 2.4-4.4-.1-9.2-5.3-9.9-2.4-.4-3.5.1-5.5 2.4zm9.2 0c.4.6.2 1.4-.5 1.6-.8.3-.6.8.6 1.7 1.7 1.3 1.7 1.5.1 3.1-2.3 2.3-6.6 1.1-7.9-2.3-1.2-3.3.1-4.9 3-3.4 1.7 1 2 .9 1.5-.4-.7-1.8 2.1-2.1 3.2-.3zM129 69.8c-3.6.8-6.7 1.6-6.9 1.8-1.3 1.2 1.4 1.3 8.1.4 4.8-.6 8.8-.6 10.9 0 3.4 1 11.9 8.5 11.9 10.6 0 .6 1 1.9 2.1 3l2.2 1.9-1.8-3.5c-4.4-8.5-10.2-13.9-16.4-14.9-2-.4-6.5 0-10.1.7zM146 69.1c0 .5.4.9.8.9 1.6 0 9.4 8.5 11.4 12.5 1.2 2.2 2.3 3.4 2.5 2.7.3-.7-.7-3.2-2.1-5.6-1.4-2.5-2.6-4.7-2.6-5.1 0-1.5 6.8 3.3 12.7 9.1 7.2 7.1 13 11.2 8.2 5.8-1.5-1.6-4.6-5.1-7-7.8-2.4-2.7-6-5.9-7.9-7.1-4.4-2.7-16-6.7-16-5.4z"/><path d="M109.1 77.1c-7.2 4.2-13 10.2-18.1 18.8-3 5.3-4.1 8-3.7 9.9.3 1.5 1.6 7.4 3 13.2 1.4 5.8 2.8 12.4 3.2 14.8.8 5.2 2.8 6.2 6 3.2l2.4-2.2 3.3 2c1.8 1.1 4.8 2.3 6.7 2.7 3.1.7 3.2.8 1.5 1.8-7.2 3.8-12.4 13-12.4 22 0 4.9.4 6.2 2.5 8.3 3.2 3.2 8.5 3 10-.3 1.1-2.7 4.3-2.6 7.1.3 1.2 1.2 2.7 2.3 3.5 2.6.8.3 1.5 2.6 1.9 5.8.6 6 2.2 7.7 6.4 6.6 2-.5 3.3-1.9 4.7-5.1 1.9-4.4 2.1-4.5 6.5-4.5 4.1 0 4.5-.2 3.9-2-.6-1.8-.2-2 3.7-2.1 2.9-.1 1.9-.4-3.2-.9-13.5-1.3-18.5-5.6-20-17l-.7-5.5-.2 4.8c-.1 5 1.7 10.7 4.3 13.3.8.8 3.8 2.5 6.6 3.8 4.4 2 4.9 2.5 3.1 3.1-1.2.3-2.1 1.1-2.1 1.6 0 2.6-12.6-.2-13.5-3.1-.3-1-1.8-2.4-3.4-3.1-2.2-1-2.7-1.7-2.3-3.7.3-1.4-.5-4-1.7-6.3-2.4-4.2-2.3-7.3.5-12.9 1.1-2.1 1.2-3.5.5-4.8-.9-1.7-.5-1.9 5.2-2 12.6-.4 39.2-4.9 48.3-8.3 3.1-1.2 6.4-3.4 8-5.2 2.6-3.1 2.7-3.4 2.1-13.3-.6-12.3-2.9-18.4-7.8-21-6.7-3.4-36.4-1.2-49.8 3.8-2.9 1.1-7.1 3.6-9.2 5.5-3.3 3-4.4 5.1-7.4 14.6-6.4 20.5-11.1 24.6-13.4 11.9-.7-3.7-2.2-10.6-3.3-15.3-2-8.3-2-8.7-.2-12.5 4-8.7 8.5-13.4 9.7-10.2.3.7.5-.2.4-2.1 0-2.1.6-3.7 1.6-4.2.9-.5 2.2-1.5 3-2.2.7-.6 3.1-2.2 5.2-3.3 3.6-2 5.8-4.4 3.8-4.4-.4 0-3.2 1.4-6.2 3.1zm63.8 18.4c3.7 1.9 5.8 7.3 6.7 16.9 1.2 13.2-1.3 15.4-21.6 19.5-24.8 5-41.5 6.3-47.3 3.7-6.1-2.7-6.1-2.8-3.4-8.3 1.4-2.7 3.3-7.6 4.2-10.8 2.6-9.2 4.8-12 11.8-15.4 11.8-5.7 42.7-9.2 49.6-5.6zm-57.4 51.2c-.4 1-1 2.8-1.3 4.1-.3 1.5-1 2.1-1.9 1.8-.8-.3-1.9-.6-2.4-.6-1.5 0-1-1.9 1.3-4.5 2.5-2.9 5.4-3.4 4.3-.8zm-1.3 11.3c3.3 2.5 5.5 7.7 4 9.2-1.8 1.8-4.1.2-3.5-2.3.4-1.5.3-2-.5-1.5-.7.4-1.2 1.8-1.2 3.1 0 4-1.1 5.5-3.9 5.5-1.4 0-3.1-.4-3.7-.8-3.5-2.3-4.5-10.3-1.7-13.4 2.1-2.4 7.4-2.3 10.5.2z"/><path d="M166.6 103.6c-3.3 3.2-1 11.4 3.1 11.4 1.6 0 2.7-.8 3.4-2.6 1-2.7.4-6.4-1.1-6.4-.4 0-1-.9-1.3-2-.6-2.4-2-2.5-4.1-.4zM132 107.9c-2.6 4.9.1 12.1 4.5 12.1 2.9 0 4.5-2.6 4.5-7.4 0-2.5-.4-3.6-1.5-3.6-.8 0-1.5-.7-1.5-1.5 0-2.2-4.7-1.9-6 .4zM158.5 114c-.9 2.9-5.1 3.7-7.5 1.5-2.2-2-3.6-1.5-2.6 1 1.8 4.9 12.6 3.2 12.6-2 0-3-1.6-3.3-2.5-.5zM117.1 117.5c-.2 4 2 9.2 5.1 12.1l3.2 2.9-2.6-3.2c-2.4-3-3.9-6.5-5.1-11.8-.5-2-.5-2-.6 0zM112.1 122.5c-.2 3.9 2 9 4.6 11l2.7 1.9-2.2-3.2c-1.3-1.7-2.9-5.1-3.7-7.4-.7-2.4-1.3-3.4-1.4-2.3zM192.7 121.8c-1 1-1.7 3-1.7 4.5 0 7.1-3.9 9.7-14.6 9.7h-5l.4 6.2c.2 3.5.7 6.6 1.1 7.1 1.6 1.6 12.6 2.8 18.1 1.9 3-.5 4.5-1 3.3-1.1-1.1 0-3.3-1.5-4.8-3.3-2.2-2.6-2.6-3.9-2.2-7.1.3-2.1 1.5-4.9 2.6-6.1 1.2-1.2 2.1-3.5 2.1-5 0-3.8 1.7-6.6 4-6.6 2 0 4 2.7 4 5.5 0 .9-1.6 3.1-3.5 4.8-3.1 2.7-3.5 3.7-3.5 7.7 0 9.1 7.2 13.1 13.6 7.7 2.2-1.9 2.7-3.2 2.7-6.8 0-5.8-1.7-8.8-5.4-9.6-2.5-.5-3-1-2.5-2.6.9-3.6-2.8-8.7-6.3-8.7-.4 0-1.5.8-2.4 1.8zm14.3 13.8c2.7 7 0 12.4-6 12.4-4.3 0-5.4-1.1-6.5-7.2-.9-4.9 1.9-7.8 7.5-7.8 3.4 0 4.2.4 5 2.6zm-22.9 6.8c1.4 5.2-1.9 7.2-6.2 3.7-2.1-1.7-2.2-2.2-1.1-4.5 1.7-3.9 6.2-3.3 7.3.8zM154.8 140.1c-.7 1.7-7.7 4.2-18.1 6.5-4.3.9-7.6 1.8-7.3 2.1.8.8 25.3-4.9 27.4-6.3.2-.1 0-1-.6-1.9-.7-1.4-1-1.4-1.4-.4zM160 151.2c0 4-.3 9.8-.6 12.8-.4 3.8-.3 5.1.4 4.1 1-1.4 1.7-24.1.7-24.1-.3 0-.5 3.3-.5 7.2zM155.3 157.7c0 9.3.1 10.7.7 6.8 1.1-6.9 1.2-18.5.1-18.5-.4 0-.8 5.3-.8 11.7zM171 153.2c-.2 1-.3 2.1-.4 2.5-.1.5-.5 2.4-.9 4.4-1.4 6.8-3.4 9.5-7.9 10.9-4 1.2-4.1 1.3-2 2.1 4.4 1.7 8.3-2 11.1-10.5 1.3-3.9 1.6-6.6 1.1-8.4-.6-1.8-.9-2.1-1-1zM88.7 173.1c-5.1 4.8.9 5.9 9.1 1.7 3.4-1.7 2.7-2.6-2.6-3-3.5-.2-5.4.2-6.5 1.3zM157 175.6c-1.9.7-4.5 1.3-5.7 1.3-2 .1-2.3.6-2.3 3.9 0 9.6 9.7 7.6 11.6-2.4.3-1.9.5-3.6.3-3.8-.2-.1-2 .3-3.9 1zM107.4 177.1c-.4.6-1.9.9-3.6.5-2-.4-4.4.2-7.7 1.8-6.6 3.4-7.6 4.8-5.6 7.9 1.9 2.9 4.5 3.8 8.2 2.8 4.5-1.2 3.9-3-.9-2.8-3.7.2-4.3-.1-4.3-1.8 0-2 7-6.8 9-6.2.5.2.8 2.2.7 4.4-.4 4.6 1.6 6.3 4.1 3.5 1.3-1.5 3.7-8.2 3.7-10.5 0-1.1-2.8-.8-3.6.4zM165.5 185c-1.9.8-1.9.9.3.9 1.3.1 2.1.5 1.8 1-1 1.6 1.9 1.9 4.5.5l2.4-1.3-2.3-.1c-1.3 0-2-.4-1.7-1 .7-1.2-2.2-1.2-5 0zM113.7 185.7c-1.8.5-1.8.5 0 1.9 2.4 1.8 2.6 1.7 5.3-.6l2.3-2-2.9.1c-1.6.1-3.7.3-4.7.6z"/></svg>